ply
format ascii 1.0
comment Created by Blender 2.64 (sub 0) - www.blender.org, source file: 'Oildrum.blend'
element vertex 526
property float x
property float y
property float z
property float nx
property float ny
property float nz
property float s
property float t
element face 476
property list uchar uint vertex_indices
end_header
0.342667 0.040948 1.135282 0.989593 0.118229 -0.081851 0.505708 0.702533
0.342667 0.040948 1.155833 0.722739 0.086337 0.685690 0.505708 0.709744
0.344071 -0.026690 1.155833 0.725700 -0.056276 0.685690 0.484038 0.709744
0.344071 -0.026690 1.135282 0.993652 -0.077059 -0.081851 0.484038 0.702533
0.332253 -0.093302 1.155833 0.700766 -0.196783 0.685690 0.462456 0.709744
0.332253 -0.093302 1.135282 0.959502 -0.269448 -0.081851 0.462468 0.702533
0.307666 -0.156329 1.155833 0.648915 -0.329722 0.685690 0.440737 0.709744
0.307666 -0.156329 1.135282 0.888516 -0.451460 -0.081851 0.440737 0.702533
0.271256 -0.213348 1.155833 0.572100 -0.449965 0.685690 0.419092 0.709744
0.271256 -0.213348 1.135282 0.783349 -0.616108 -0.081851 0.419092 0.702533
0.224422 -0.262168 1.155833 0.473342 -0.552934 0.685690 0.397432 0.709744
0.224422 -0.262168 1.135282 0.648091 -0.757103 -0.081851 0.397432 0.702533
0.168964 -0.300913 1.155833 0.356365 -0.634663 0.685690 0.375750 0.709744
0.168964 -0.300913 1.135282 0.487930 -0.869015 -0.081851 0.375750 0.702533
0.107012 -0.328094 1.155833 0.225684 -0.692007 0.685690 0.354069 0.709744
0.107012 -0.328094 1.135282 0.309030 -0.947508 -0.081851 0.354069 0.702533
0.040948 -0.342667 1.155833 0.086337 -0.722739 0.685690 0.332390 0.709744
0.040948 -0.342667 1.135282 0.118229 -0.989593 -0.081851 0.332390 0.702533
-0.026690 -0.344071 1.155833 -0.056276 -0.725700 0.685690 0.310487 0.709744
-0.026690 -0.344071 1.135282 -0.077059 -0.993652 -0.081851 0.310518 0.702533
-0.093302 -0.332253 1.155833 -0.196783 -0.700766 0.685690 0.289069 0.709744
-0.093302 -0.332253 1.135282 -0.269448 -0.959502 -0.081851 0.289069 0.702533
-0.156329 -0.307666 1.155833 -0.329722 -0.648915 0.685690 0.267415 0.709744
-0.156329 -0.307666 1.135282 -0.451460 -0.888516 -0.081851 0.267415 0.702533
-0.213348 -0.271256 1.155833 -0.449965 -0.572100 0.685690 0.245764 0.709744
-0.213348 -0.271256 1.135282 -0.616108 -0.783349 -0.081851 0.245764 0.702533
-0.262168 -0.224422 1.155833 -0.552934 -0.473342 0.685690 0.223592 0.709744
-0.262168 -0.224422 1.135282 -0.757103 -0.648091 -0.081851 0.223645 0.702533
-0.300913 -0.168964 1.155833 -0.634663 -0.356365 0.685690 0.202458 0.709744
-0.300913 -0.168964 1.135282 -0.869015 -0.487930 -0.081851 0.202458 0.702533
-0.328094 -0.107012 1.155833 -0.692007 -0.225684 0.685690 0.180789 0.709744
-0.328094 -0.107012 1.135282 -0.947508 -0.309030 -0.081851 0.180789 0.702533
-0.342667 -0.040947 1.155833 -0.722739 -0.086337 0.685690 0.159134 0.709744
-0.342667 -0.040947 1.135282 -0.989593 -0.118229 -0.081851 0.159134 0.702533
-0.342667 -0.040947 1.135282 -0.989593 -0.118229 -0.081851 0.852226 0.702533
-0.342667 -0.040947 1.155833 -0.722739 -0.086337 0.685690 0.852226 0.709744
-0.344071 0.026690 1.155833 -0.725700 0.056276 0.685690 0.830562 0.709744
-0.344071 0.026690 1.135282 -0.993652 0.077059 -0.081851 0.830562 0.702533
-0.332253 0.093302 1.155833 -0.700766 0.196783 0.685690 0.808945 0.709744
-0.332253 0.093302 1.135282 -0.959502 0.269448 -0.081851 0.808945 0.702533
-0.307667 0.156329 1.155833 -0.648915 0.329722 0.685690 0.787325 0.709744
-0.307667 0.156329 1.135282 -0.888516 0.451460 -0.081851 0.787325 0.702533
-0.271256 0.213348 1.155833 -0.572100 0.449965 0.685690 0.765694 0.709744
-0.271256 0.213348 1.135282 -0.783349 0.616108 -0.081851 0.765694 0.702533
-0.224422 0.262168 1.155833 -0.473342 0.552934 0.685690 0.744054 0.709744
-0.224422 0.262168 1.135282 -0.648091 0.757103 -0.081851 0.744054 0.702533
-0.168963 0.300913 1.155833 -0.356365 0.634663 0.685690 0.722407 0.709744
-0.168963 0.300913 1.135282 -0.487930 0.869015 -0.081851 0.722407 0.702533
-0.107012 0.328094 1.155833 -0.225684 0.692007 0.685690 0.700753 0.709744
-0.107012 0.328094 1.135282 -0.309030 0.947508 -0.081851 0.700753 0.702533
-0.040947 0.342667 1.155833 -0.086337 0.722739 0.685690 0.679090 0.709744
-0.040947 0.342667 1.135282 -0.118229 0.989593 -0.081851 0.679090 0.702533
0.026690 0.344071 1.155833 0.056276 0.725700 0.685690 0.657417 0.709744
0.026690 0.344071 1.135282 0.077059 0.993652 -0.081851 0.657417 0.702533
0.093303 0.332253 1.155833 0.196783 0.700766 0.685690 0.635743 0.709744
0.093303 0.332253 1.135282 0.269448 0.959502 -0.081851 0.635743 0.702533
0.156329 0.307666 1.155833 0.329722 0.648915 0.685690 0.614070 0.709744
0.156329 0.307666 1.135282 0.451460 0.888516 -0.081851 0.614070 0.702533
0.213348 0.271256 1.155833 0.449965 0.572100 0.685690 0.592396 0.709744
0.213348 0.271256 1.135282 0.616108 0.783349 -0.081851 0.592396 0.702533
0.262168 0.224422 1.155833 0.552934 0.473342 0.685690 0.570723 0.709744
0.262168 0.224422 1.135282 0.757103 0.648091 -0.081851 0.570723 0.702533
0.300913 0.168963 1.155833 0.634663 0.356365 0.685690 0.549051 0.709744
0.300913 0.168963 1.135282 0.869015 0.487930 -0.081851 0.549051 0.702533
0.093303 0.332253 1.155833 0.196783 0.700766 0.685690 0.552280 0.924905
0.026690 0.344071 1.155833 0.056276 0.725700 0.685690 0.571838 0.910200
-0.040947 0.342667 1.155833 -0.086337 0.722739 0.685690 0.582792 0.892573
-0.107012 0.328094 1.155833 -0.225684 0.692007 0.685690 0.596878 0.869759
0.156329 0.307666 1.155833 0.329722 0.648915 0.685690 0.535440 0.937237
-0.168963 0.300913 1.155833 -0.356365 0.634663 0.685690 0.600477 0.848660
0.213348 0.271256 1.155833 0.449965 0.572100 0.685690 0.513106 0.943303
-0.224422 0.262168 1.155833 -0.473342 0.552934 0.685690 0.604019 0.823397
0.262168 0.224422 1.155833 0.552934 0.473342 0.685690 0.488331 0.948336
-0.271256 0.213348 1.155833 -0.572100 0.449965 0.685690 0.599958 0.802978
0.300913 0.168963 1.155833 0.634663 0.356365 0.685690 0.464725 0.944580
-0.307667 0.156329 1.155833 -0.648915 0.329722 0.685690 0.594341 0.779644
0.328094 0.107011 1.155833 0.692007 0.225684 0.685690 0.443356 0.942171
-0.332253 0.093302 1.155833 -0.700766 0.196783 0.685690 0.579694 0.758670
0.342667 0.040948 1.155833 0.722739 0.086337 0.685690 0.422364 0.929168
-0.344071 0.026690 1.155833 -0.725700 0.056276 0.685690 0.565932 0.739477
0.344071 -0.026690 1.155833 0.725700 -0.056276 0.685690 0.402171 0.916659
-0.342667 -0.040947 1.155833 -0.722739 -0.086337 0.685690 0.546380 0.727366
0.332253 -0.093302 1.155833 0.700766 -0.196783 0.685690 0.388444 0.897272
-0.328094 -0.107012 1.155833 -0.692007 -0.225684 0.685690 0.527973 0.715964
0.307666 -0.156329 1.155833 0.648915 -0.329722 0.685690 0.374584 0.878120
-0.300913 -0.168964 1.155833 -0.634663 -0.356365 0.685690 0.506143 0.713009
0.271256 -0.213348 1.155833 0.572100 -0.449965 0.685690 0.369574 0.854408
-0.262168 -0.224422 1.155833 -0.552934 -0.473342 0.685690 0.479269 0.708485
0.224422 -0.262168 1.155833 0.473342 -0.552934 0.685690 0.364475 0.833350
-0.213348 -0.271256 1.155833 -0.449965 -0.572100 0.685690 0.458767 0.713437
0.168964 -0.300913 1.155833 0.356365 -0.634663 0.685690 0.368469 0.808977
-0.156329 -0.307666 1.155833 -0.329722 -0.648915 0.685690 0.434723 0.719242
0.107012 -0.328094 1.155833 0.225684 -0.692007 0.685690 0.371745 0.786450
-0.093302 -0.332253 1.155833 -0.196783 -0.700766 0.685690 0.417221 0.730933
0.040948 -0.342667 1.155833 0.086337 -0.722739 0.685690 0.385772 0.763805
-0.026690 -0.344071 1.155833 -0.056276 -0.725700 0.685690 0.396950 0.745759
0.328094 0.107011 1.135282 0.947508 0.309030 -0.081851 0.527379 0.702533
0.328094 0.107011 1.155833 0.692007 0.225684 0.685690 0.527379 0.709744
-0.040947 0.342667 0.000000 -0.086337 0.722739 -0.685690 0.365730 0.185942
0.026690 0.344071 0.000000 0.056276 0.725700 -0.685690 0.365730 0.158989
0.093303 0.332253 0.000000 0.196783 0.700766 -0.685690 0.373872 0.139878
-0.107012 0.328094 0.000000 -0.225684 0.692007 -0.685690 0.365730 0.206047
0.156329 0.307666 0.000000 0.329722 0.648915 -0.685690 0.383624 0.116381
-0.168963 0.300913 0.000000 -0.356365 0.634663 -0.685690 0.375257 0.229180
0.213348 0.271256 0.000000 0.449965 0.572100 -0.685690 0.399572 0.099979
-0.224422 0.262168 0.000000 -0.473342 0.552934 -0.685690 0.384108 0.250020
0.262168 0.224422 0.000000 0.552934 0.473342 -0.685690 0.417757 0.082192
-0.271256 0.213348 0.000000 -0.572100 0.449965 -0.685690 0.401577 0.267489
0.300913 0.168963 0.000000 0.634663 0.356365 -0.685690 0.439053 0.073378
-0.307667 0.156329 0.000000 -0.648915 0.329722 -0.685690 0.417123 0.282735
0.328094 0.107011 0.000000 0.692007 0.225684 -0.685690 0.460805 0.064420
-0.332253 0.093302 0.000000 -0.700766 0.196783 -0.685690 0.440469 0.292300
0.342667 0.040948 0.000000 0.722739 0.086337 -0.685690 0.485680 0.064420
-0.344071 0.026690 0.000000 -0.725700 0.056276 -0.685690 0.460533 0.300555
0.344071 -0.026690 0.000000 0.725700 -0.056276 -0.685690 0.508756 0.064420
-0.342667 -0.040947 0.000000 -0.722739 -0.086337 -0.685690 0.483823 0.300555
0.332253 -0.093302 0.000000 0.700766 -0.196783 -0.685690 0.533537 0.075383
-0.328094 -0.107012 0.000000 -0.692007 -0.225684 -0.685690 0.507620 0.300555
0.307666 -0.156329 0.000000 0.648915 -0.329722 -0.685690 0.551552 0.083134
-0.300913 -0.168964 0.000000 -0.634663 -0.356365 -0.685690 0.530930 0.291061
0.271256 -0.213348 0.000000 0.572100 -0.449965 -0.685690 0.567018 0.098452
-0.262168 -0.224422 0.000000 -0.552934 -0.473342 -0.685690 0.551007 0.282937
0.224422 -0.262168 0.000000 0.473342 -0.552934 -0.685690 0.584048 0.115510
-0.213348 -0.271256 0.000000 -0.449965 -0.572100 -0.685690 0.568873 0.265313
0.168964 -0.300913 0.000000 0.356365 -0.634663 -0.685690 0.593992 0.138615
-0.156329 -0.307666 0.000000 -0.329722 -0.648915 -0.685690 0.584016 0.249812
0.107012 -0.328094 0.000000 0.225684 -0.692007 -0.685690 0.602399 0.159080
-0.093302 -0.332253 0.000000 -0.196783 -0.700766 -0.685690 0.593040 0.228191
0.040948 -0.342667 0.000000 0.086337 -0.722739 -0.685690 0.602399 0.182288
-0.026690 -0.344071 0.000000 -0.056276 -0.725700 -0.685690 0.602399 0.206930
0.346060 0.041353 0.729870 0.964568 0.115238 -0.237251 0.505708 0.559014
0.346060 0.041353 0.751935 0.983978 0.117557 0.133854 0.505708 0.566757
0.347478 -0.026954 0.751935 0.988006 -0.076632 0.133854 0.484038 0.566757
0.347478 -0.026954 0.729870 0.968505 -0.075106 -0.237251 0.484038 0.559014
0.335542 -0.094226 0.751935 0.954070 -0.267922 0.133854 0.462471 0.566757
0.335542 -0.094226 0.729870 0.935240 -0.262612 -0.237251 0.462505 0.559014
0.310712 -0.157877 0.751935 0.883480 -0.448897 0.133854 0.440737 0.566757
0.310712 -0.157877 0.729870 0.866054 -0.440046 -0.237251 0.440737 0.559014
0.273942 -0.215460 0.751935 0.778924 -0.612629 0.133854 0.419092 0.566757
0.273942 -0.215460 0.729870 0.763543 -0.600543 -0.237251 0.419092 0.559014
0.226644 -0.264764 0.751935 0.644429 -0.752831 0.133854 0.397432 0.566757
0.226644 -0.264764 0.729870 0.631703 -0.737968 -0.237251 0.397432 0.559014
0.170636 -0.303892 0.751935 0.485183 -0.864071 0.133854 0.375750 0.566757
0.170636 -0.303892 0.729870 0.475600 -0.847041 -0.237251 0.375750 0.559014
0.108071 -0.331343 0.751935 0.307291 -0.942137 0.133854 0.354069 0.566757
0.108071 -0.331343 0.729870 0.301218 -0.923551 -0.237251 0.354069 0.559014
0.041353 -0.346060 0.751935 0.117557 -0.983978 0.133854 0.332390 0.566757
0.041353 -0.346060 0.729870 0.115238 -0.964568 -0.237251 0.332390 0.559014
-0.026955 -0.347478 0.751935 -0.076632 -0.988006 0.133854 0.310877 0.566757
-0.026955 -0.347478 0.729870 -0.075106 -0.968505 -0.237251 0.310927 0.559014
-0.094226 -0.335543 0.751935 -0.267922 -0.954070 0.133854 0.289069 0.566757
-0.094226 -0.335543 0.729870 -0.262612 -0.935240 -0.237251 0.289069 0.559014
-0.157877 -0.310713 0.751935 -0.448897 -0.883480 0.133854 0.267415 0.566757
-0.157877 -0.310713 0.729870 -0.440046 -0.866054 -0.237251 0.267415 0.559014
-0.215460 -0.273942 0.751935 -0.612629 -0.778924 0.133854 0.245764 0.566757
-0.215460 -0.273942 0.729870 -0.600543 -0.763543 -0.237251 0.245764 0.559014
-0.264764 -0.226644 0.751935 -0.752831 -0.644429 0.133854 0.224337 0.566757
-0.264764 -0.226644 0.729870 -0.737968 -0.631703 -0.237251 0.224408 0.559014
-0.303893 -0.170636 0.751935 -0.864071 -0.485183 0.133854 0.202458 0.566757
-0.303893 -0.170636 0.729870 -0.847041 -0.475600 -0.237251 0.202458 0.559014
-0.331343 -0.108071 0.751935 -0.942137 -0.307291 0.133854 0.180789 0.566757
-0.331343 -0.108071 0.729870 -0.923551 -0.301218 -0.237251 0.180789 0.559014
-0.346060 -0.041353 0.751935 -0.983978 -0.117557 0.133854 0.159134 0.566757
-0.346060 -0.041353 0.729870 -0.964568 -0.115238 -0.237251 0.159134 0.559014
-0.346060 -0.041353 0.729870 -0.964568 -0.115238 -0.237251 0.852226 0.559014
-0.346060 -0.041353 0.751935 -0.983978 -0.117557 0.133854 0.852226 0.566757
-0.347478 0.026955 0.751935 -0.988006 0.076632 0.133854 0.830562 0.566757
-0.347478 0.026955 0.729870 -0.968505 0.075106 -0.237251 0.830562 0.559014
-0.335543 0.094226 0.751935 -0.954070 0.267922 0.133854 0.808945 0.566757
-0.335543 0.094226 0.729870 -0.935240 0.262612 -0.237251 0.808945 0.559014
-0.310713 0.157877 0.751935 -0.883480 0.448897 0.133854 0.787325 0.566757
-0.310713 0.157877 0.729870 -0.866054 0.440046 -0.237251 0.787325 0.559014
-0.273942 0.215460 0.751935 -0.778924 0.612629 0.133854 0.765694 0.566757
-0.273942 0.215460 0.729870 -0.763543 0.600543 -0.237251 0.765694 0.559014
-0.226644 0.264764 0.751935 -0.644429 0.752831 0.133854 0.744054 0.566757
-0.226644 0.264764 0.729870 -0.631703 0.737968 -0.237251 0.744054 0.559014
-0.170636 0.303892 0.751935 -0.485183 0.864071 0.133854 0.722407 0.566757
-0.170636 0.303892 0.729870 -0.475600 0.847041 -0.237251 0.722407 0.559014
-0.108071 0.331343 0.751935 -0.307291 0.942137 0.133854 0.700753 0.566757
-0.108071 0.331343 0.729870 -0.301218 0.923551 -0.237251 0.700753 0.559014
-0.041353 0.346060 0.751935 -0.117557 0.983978 0.133854 0.679090 0.566757
-0.041353 0.346060 0.729870 -0.115238 0.964568 -0.237251 0.679090 0.559014
0.026955 0.347478 0.751935 0.076632 0.988006 0.133854 0.657417 0.566757
0.026955 0.347478 0.729870 0.075106 0.968505 -0.237251 0.657417 0.559014
0.094226 0.335543 0.751935 0.267922 0.954070 0.133854 0.635743 0.566757
0.094226 0.335543 0.729870 0.262612 0.935240 -0.237251 0.635743 0.559014
0.157877 0.310713 0.751935 0.448897 0.883480 0.133854 0.614070 0.566757
0.157877 0.310713 0.729870 0.440046 0.866054 -0.237251 0.614070 0.559014
0.215460 0.273942 0.751935 0.612629 0.778924 0.133854 0.592396 0.566757
0.215460 0.273942 0.729870 0.600543 0.763543 -0.237251 0.592396 0.559014
0.264764 0.226644 0.751935 0.752831 0.644429 0.133854 0.570723 0.566757
0.264764 0.226644 0.729870 0.737968 0.631703 -0.237251 0.570723 0.559014
0.303892 0.170636 0.751935 0.864071 0.485183 0.133854 0.549051 0.566757
0.303892 0.170636 0.729870 0.847041 0.475600 -0.237251 0.549051 0.559014
0.331343 0.108071 0.729870 0.923551 0.301218 -0.237251 0.527379 0.559014
0.331343 0.108071 0.751935 0.942137 0.307291 0.133854 0.527379 0.566757
0.264764 0.226644 0.378519 0.755120 0.646413 -0.109165 0.570723 0.434082
0.264764 0.226644 0.400070 0.744957 0.637684 0.195868 0.570723 0.441596
0.303892 0.170636 0.400070 0.855037 0.480087 0.195868 0.549051 0.441596
0.303892 0.170636 0.378519 0.866726 0.486648 -0.109165 0.549051 0.434082
0.107012 -0.328094 0.016761 0.309305 -0.948393 0.069735 0.354069 0.306617
0.105952 -0.324846 0.040972 0.309305 -0.948332 0.070345 0.354069 0.315196
0.040542 -0.339274 0.040972 0.118351 -0.990448 0.070345 0.332390 0.315196
0.040948 -0.342667 0.016761 0.118351 -0.990509 0.069735 0.332390 0.306617
0.271256 -0.213348 0.016761 0.784082 -0.616688 0.069735 0.419092 0.306617
0.268571 -0.211235 0.040972 0.784051 -0.616657 0.070345 0.419092 0.315196
0.222200 -0.259572 0.040972 0.648671 -0.757775 0.070345 0.397432 0.315196
0.224422 -0.262168 0.016761 0.648701 -0.757805 0.069735 0.397432 0.306617
-0.324846 -0.105952 0.776554 -0.941832 -0.307169 0.136082 0.180789 0.575661
-0.324846 -0.105952 1.114731 -0.947447 -0.309000 -0.082705 0.180789 0.695197
-0.339274 -0.040542 1.114731 -0.989532 -0.118229 -0.082705 0.159134 0.695197
-0.339274 -0.040542 0.776554 -0.983673 -0.117527 0.136082 0.159134 0.575661
-0.331343 -0.108071 0.378519 -0.945006 -0.308206 -0.109165 0.180789 0.434082
-0.331343 -0.108071 0.400070 -0.932279 -0.304056 0.195868 0.180789 0.441596
-0.346060 -0.041353 0.400070 -0.973693 -0.116337 0.195868 0.159134 0.441596
-0.346060 -0.041353 0.378519 -0.986999 -0.117924 -0.109165 0.159134 0.434082
0.168964 -0.300913 0.016761 0.488388 -0.869808 0.069735 0.375750 0.306617
0.167291 -0.297934 0.040972 0.488388 -0.869778 0.070345 0.375750 0.315196
-0.342667 -0.040947 0.000000 -0.722739 -0.086337 -0.685690 0.852226 0.300756
-0.342667 -0.040947 0.016761 -0.990509 -0.118351 0.069735 0.852226 0.306617
-0.344071 0.026690 0.016761 -0.994568 0.077151 0.069735 0.830562 0.306617
-0.344071 0.026690 0.000000 -0.725700 0.056276 -0.685690 0.830562 0.300756
-0.170636 0.303892 0.378519 -0.486648 0.866726 -0.109165 0.722407 0.434082
-0.170636 0.303892 0.400070 -0.480087 0.855037 0.195868 0.722407 0.441596
-0.108071 0.331343 0.400070 -0.304056 0.932279 0.195868 0.700753 0.441596
-0.108071 0.331343 0.378519 -0.308206 0.945006 -0.109165 0.700753 0.434082
0.224422 -0.262168 0.000000 0.473342 -0.552934 -0.685690 0.397432 0.300756
0.168964 -0.300913 0.000000 0.356365 -0.634663 -0.685690 0.375750 0.300756
-0.332253 0.093302 0.016761 -0.960387 0.269692 0.069735 0.808945 0.306617
-0.328963 0.092379 0.040972 -0.960356 0.269662 0.070345 0.808945 0.315196
-0.304620 0.154781 0.040972 -0.889279 0.451857 0.070345 0.787325 0.315196
-0.307667 0.156329 0.016761 -0.889340 0.451857 0.069735 0.787325 0.306617
-0.093302 -0.332253 0.000000 -0.196783 -0.700766 -0.685690 0.289069 0.300756
-0.093302 -0.332253 0.016761 -0.269692 -0.960387 0.069735 0.289069 0.306617
-0.156329 -0.307666 0.016761 -0.451857 -0.889340 0.069735 0.267415 0.306617
-0.156329 -0.307666 0.000000 -0.329722 -0.648915 -0.685690 0.267415 0.300756
-0.339274 -0.040542 0.776554 -0.983673 -0.117527 0.136082 0.852226 0.575661
-0.339274 -0.040542 1.114731 -0.989532 -0.118229 -0.082705 0.852226 0.695197
-0.340665 0.026426 1.114731 -0.993561 0.077059 -0.082705 0.830562 0.695197
-0.340665 0.026426 0.776554 -0.987701 0.076601 0.136082 0.830562 0.575661
0.170636 -0.303892 0.378519 0.486648 -0.866726 -0.109165 0.375750 0.434082
0.170636 -0.303892 0.400070 0.480087 -0.855037 0.195868 0.375750 0.441596
0.108071 -0.331343 0.400070 0.304056 -0.932279 0.195868 0.354069 0.441596
0.108071 -0.331343 0.378519 0.308206 -0.945006 -0.109165 0.354069 0.434082
-0.328963 0.092379 0.776554 -0.953795 0.267830 0.136082 0.808945 0.575661
-0.328963 0.092379 1.114731 -0.959441 0.269417 -0.082705 0.808945 0.695197
-0.304620 0.154781 1.114731 -0.888455 0.451430 -0.082705 0.787325 0.695197
-0.304620 0.154781 0.776554 -0.883206 0.448744 0.136082 0.787325 0.575661
-0.226644 0.264764 0.378519 -0.646413 0.755120 -0.109165 0.744054 0.434082
-0.226644 0.264764 0.400070 -0.637684 0.744957 0.195868 0.744054 0.441596
-0.268571 0.211236 1.114731 -0.783288 0.616077 -0.082705 0.765694 0.695197
-0.268571 0.211236 0.776554 -0.778680 0.612445 0.136082 0.765694 0.575661
0.300913 0.168963 0.000000 0.634663 0.356365 -0.685690 0.549051 0.300756
0.300913 0.168963 0.016761 0.869808 0.488388 0.069735 0.549051 0.306617
0.328094 0.107011 0.016761 0.948393 0.309305 0.069735 0.527379 0.306617
0.328094 0.107011 0.000000 0.692007 0.225684 -0.685690 0.527379 0.300756
-0.307667 0.156329 0.000000 -0.648915 0.329722 -0.685690 0.787325 0.300756
-0.271256 0.213348 0.016761 -0.784082 0.616688 0.069735 0.765694 0.306617
-0.271256 0.213348 0.000000 -0.572100 0.449965 -0.685690 0.765694 0.300756
0.310712 -0.157877 0.378519 0.886166 -0.450270 -0.109165 0.440737 0.434082
0.310712 -0.157877 0.400070 0.874233 -0.444197 0.195868 0.440737 0.441596
0.273942 -0.215460 0.400070 0.770775 -0.606220 0.195868 0.419092 0.441596
0.273942 -0.215460 0.378519 0.781304 -0.614490 -0.109165 0.419092 0.434082
-0.339274 -0.040542 0.040972 -0.990448 -0.118351 0.070345 0.852226 0.315196
-0.340665 0.026426 0.040972 -0.994507 0.077120 0.070345 0.830562 0.315196
-0.335543 0.094226 0.378519 -0.956999 0.268715 -0.109165 0.808945 0.434082
-0.335543 0.094226 0.400070 -0.944090 0.265114 0.195868 0.808945 0.441596
-0.310713 0.157877 0.400070 -0.874233 0.444197 0.195868 0.787325 0.441596
-0.310713 0.157877 0.378519 -0.886166 0.450270 -0.109165 0.787325 0.434082
0.324846 0.105952 0.040972 0.948332 0.309305 0.070345 0.527379 0.315196
0.339274 0.040542 0.040972 0.990448 0.118351 0.070345 0.505708 0.315196
0.342667 0.040948 0.016761 0.990509 0.118351 0.069735 0.505708 0.306617
-0.264764 -0.226644 0.378519 -0.755120 -0.646413 -0.109165 0.224619 0.434082
-0.264764 -0.226644 0.400070 -0.744957 -0.637684 0.195868 0.224585 0.441596
-0.303893 -0.170636 0.400070 -0.855037 -0.480117 0.195868 0.202458 0.441596
-0.303893 -0.170636 0.378519 -0.866726 -0.486648 -0.109165 0.202458 0.434082
0.226644 -0.264764 0.378519 0.646413 -0.755120 -0.109165 0.397432 0.434082
0.226644 -0.264764 0.400070 0.637684 -0.744957 0.195868 0.397432 0.441596
0.157877 0.310713 0.378519 0.450270 0.886166 -0.109165 0.614070 0.434082
0.157877 0.310713 0.400070 0.444197 0.874233 0.195868 0.614070 0.441596
0.215460 0.273942 0.400070 0.606220 0.770775 0.195868 0.592396 0.441596
0.215460 0.273942 0.378519 0.614490 0.781304 -0.109165 0.592396 0.434082
-0.273942 0.215460 0.378519 -0.781304 0.614490 -0.109165 0.765694 0.434082
-0.273942 0.215460 0.400070 -0.770775 0.606220 0.195868 0.765694 0.441596
0.092379 0.328963 0.776554 0.267830 0.953795 0.136082 0.635743 0.575661
0.092379 0.328963 1.114731 0.269417 0.959441 -0.082705 0.635743 0.695197
0.154781 0.304620 1.114731 0.451430 0.888455 -0.082705 0.614070 0.695197
0.154781 0.304620 0.776554 0.448744 0.883206 0.136082 0.614070 0.575661
-0.026955 -0.347478 0.378519 -0.076876 -0.991028 -0.109165 0.310952 0.434082
-0.026955 -0.347478 0.400070 -0.075838 -0.977691 0.195868 0.310920 0.441596
-0.094226 -0.335543 0.400070 -0.265114 -0.944090 0.195868 0.289069 0.441596
-0.094226 -0.335543 0.378519 -0.268715 -0.956999 -0.109165 0.289069 0.434082
-0.041353 0.346060 0.378519 -0.117924 0.986999 -0.109165 0.679090 0.434082
-0.041353 0.346060 0.400070 -0.116337 0.973693 0.195868 0.679090 0.441596
0.026955 0.347478 0.400070 0.075838 0.977691 0.195868 0.657417 0.441596
0.026955 0.347478 0.378519 0.076876 0.991028 -0.109165 0.657417 0.434082
0.340665 -0.026426 1.114731 0.993561 -0.077059 -0.082705 0.484038 0.695197
0.328963 -0.092379 1.114731 0.959441 -0.269417 -0.082705 0.462474 0.695197
-0.026690 -0.344071 0.000000 -0.056276 -0.725700 -0.685690 0.310879 0.300756
-0.026690 -0.344071 0.016761 -0.077120 -0.994568 0.069735 0.310877 0.306617
-0.215460 -0.273942 0.378519 -0.614490 -0.781304 -0.109165 0.245764 0.434082
-0.215460 -0.273942 0.400070 -0.606220 -0.770775 0.195868 0.245764 0.441596
0.297934 0.167290 0.040972 0.869778 0.488357 0.070345 0.549051 0.315196
0.094226 0.335543 0.378519 0.268715 0.956999 -0.109165 0.635743 0.434082
0.094226 0.335543 0.400070 0.265114 0.944090 0.195868 0.635743 0.441596
-0.268571 0.211236 0.040972 -0.784051 0.616657 0.070345 0.765694 0.315196
-0.222200 0.259572 0.040972 -0.648671 0.757775 0.070345 0.744054 0.315196
-0.224422 0.262168 0.016761 -0.648701 0.757805 0.069735 0.744054 0.306617
0.342667 0.040948 0.000000 0.722739 0.086337 -0.685690 0.505708 0.300756
-0.259572 -0.222200 0.776554 -0.752586 -0.644246 0.136082 0.224286 0.575661
-0.259572 -0.222200 1.114731 -0.757073 -0.648061 -0.082705 0.223695 0.695197
-0.297934 -0.167291 1.114731 -0.868954 -0.487899 -0.082705 0.202458 0.695197
-0.297934 -0.167291 0.776554 -0.863826 -0.485031 0.136082 0.202458 0.575661
0.211236 0.268571 1.114731 0.616077 0.783288 -0.082705 0.592396 0.695197
0.211236 0.268571 0.776554 0.612445 0.778680 0.136082 0.592396 0.575661
0.346060 0.041353 0.378519 0.986999 0.117924 -0.109165 0.505708 0.434082
0.346060 0.041353 0.400070 0.973693 0.116337 0.195868 0.505708 0.441596
0.347478 -0.026954 0.400070 0.977691 -0.075838 0.195868 0.484038 0.441596
0.347478 -0.026954 0.378519 0.991028 -0.076876 -0.109165 0.484038 0.434082
-0.262168 -0.224422 0.016761 -0.757805 -0.648701 0.069735 0.224474 0.306617
-0.259572 -0.222200 0.040972 -0.757775 -0.648671 0.070345 0.224491 0.315196
-0.297934 -0.167291 0.040972 -0.869778 -0.488388 0.070345 0.202458 0.315196
-0.300913 -0.168964 0.016761 -0.869808 -0.488388 0.069735 0.202458 0.306617
-0.026426 -0.340665 0.040972 -0.077120 -0.994507 0.070345 0.310879 0.315196
0.331343 0.108071 0.400070 0.932279 0.304056 0.195868 0.527379 0.441596
0.331343 0.108071 0.378519 0.945006 0.308206 -0.109165 0.527379 0.434082
0.041353 -0.346060 0.400070 0.116337 -0.973693 0.195868 0.332390 0.441596
0.041353 -0.346060 0.378519 0.117924 -0.986999 -0.109165 0.332390 0.434082
0.262168 0.224422 0.016761 0.757805 0.648701 0.069735 0.570723 0.306617
0.259572 0.222200 0.040972 0.757775 0.648671 0.070345 0.570723 0.315196
0.335542 -0.094226 0.378519 0.956999 -0.268715 -0.109165 0.462338 0.434082
0.335542 -0.094226 0.400070 0.944090 -0.265114 0.195868 0.462313 0.441596
-0.167291 0.297934 0.040972 -0.488357 0.869778 0.070345 0.722407 0.315196
-0.168963 0.300913 0.016761 -0.488388 0.869808 0.069735 0.722407 0.306617
-0.347478 0.026955 0.378519 -0.991028 0.076876 -0.109165 0.830562 0.434082
-0.347478 0.026955 0.400070 -0.977691 0.075838 0.195868 0.830562 0.441596
-0.157877 -0.310713 0.378519 -0.450270 -0.886166 -0.109165 0.267415 0.434082
-0.157877 -0.310713 0.400070 -0.444197 -0.874233 0.195868 0.267415 0.441596
0.093303 0.332253 0.016761 0.269692 0.960387 0.069735 0.635743 0.306617
0.092379 0.328963 0.040972 0.269662 0.960356 0.070345 0.635743 0.315196
0.154781 0.304620 0.040972 0.451857 0.889279 0.070345 0.614070 0.315196
0.156329 0.307666 0.016761 0.451888 0.889340 0.069735 0.614070 0.306617
0.222200 -0.259572 0.416274 0.637043 -0.744194 0.200659 0.397432 0.447739
0.222200 -0.259572 0.716939 0.630573 -0.736656 -0.244270 0.397432 0.553865
0.167291 -0.297934 0.716939 0.474746 -0.845515 -0.244270 0.375750 0.553865
0.167291 -0.297934 0.416274 0.479629 -0.854183 0.200659 0.375750 0.447739
0.026690 0.344071 0.000000 0.056276 0.725700 -0.685690 0.657417 0.300756
0.026690 0.344071 0.016761 0.077151 0.994568 0.069735 0.657417 0.306617
0.093303 0.332253 0.000000 0.196783 0.700766 -0.685690 0.635743 0.300756
-0.346060 -0.041353 0.378519 -0.986999 -0.117924 -0.109165 0.852226 0.434082
-0.346060 -0.041353 0.400070 -0.973693 -0.116337 0.195868 0.852226 0.441596
-0.324846 -0.105952 0.040972 -0.948332 -0.309305 0.070345 0.180789 0.315196
-0.328094 -0.107012 0.016761 -0.948393 -0.309305 0.069735 0.180789 0.306617
0.026426 0.340665 0.040972 0.077120 0.994507 0.070345 0.657417 0.315196
-0.213348 -0.271256 0.000000 -0.449965 -0.572100 -0.685690 0.245764 0.300756
-0.213348 -0.271256 0.016761 -0.616688 -0.784082 0.069735 0.245764 0.306617
-0.262168 -0.224422 0.000000 -0.552934 -0.473342 -0.685690 0.224464 0.300756
-0.092379 -0.328963 0.040972 -0.269662 -0.960356 0.070345 0.289069 0.315196
-0.154781 -0.304620 0.040972 -0.451857 -0.889279 0.070345 0.267415 0.315196
-0.107012 0.328094 0.016761 -0.309305 0.948393 0.069735 0.700753 0.306617
-0.105952 0.324846 0.040972 -0.309305 0.948332 0.070345 0.700753 0.315196
-0.040542 0.339274 0.040972 -0.118351 0.990448 0.070345 0.679090 0.315196
-0.040947 0.342667 0.016761 -0.118351 0.990509 0.069735 0.679090 0.306617
0.340664 -0.026426 0.040972 0.994507 -0.077120 0.070345 0.484038 0.315196
0.344071 -0.026690 0.016761 0.994568 -0.077151 0.069735 0.484038 0.306617
0.167291 -0.297934 1.114731 0.487899 -0.868954 -0.082705 0.375750 0.695197
0.105952 -0.324846 1.114731 0.309000 -0.947447 -0.082705 0.354069 0.695197
0.156329 0.307666 0.000000 0.329722 0.648915 -0.685690 0.614070 0.300756
0.344071 -0.026690 0.000000 0.725700 -0.056276 -0.685690 0.484038 0.300756
0.328963 -0.092379 0.040972 0.960356 -0.269662 0.070345 0.462263 0.315196
0.332253 -0.093302 0.016761 0.960387 -0.269692 0.069735 0.462264 0.306617
0.107012 -0.328094 0.000000 0.225684 -0.692007 -0.685690 0.354069 0.300756
0.211236 0.268571 0.040972 0.616657 0.784051 0.070345 0.592396 0.315196
0.213348 0.271256 0.016761 0.616688 0.784082 0.069735 0.592396 0.306617
-0.040947 0.342667 0.000000 -0.086337 0.722739 -0.685690 0.679090 0.300756
-0.211236 -0.268571 0.040972 -0.616657 -0.784051 0.070345 0.245764 0.315196
0.307666 -0.156329 0.016761 0.889340 -0.451857 0.069735 0.440737 0.306617
0.304620 -0.154781 0.040972 0.889279 -0.451857 0.070345 0.440737 0.315196
0.213348 0.271256 0.000000 0.449965 0.572100 -0.685690 0.592396 0.300756
0.262168 0.224422 0.000000 0.552934 0.473342 -0.685690 0.570723 0.300756
-0.339274 -0.040542 0.040972 -0.990448 -0.118351 0.070345 0.159134 0.315196
-0.342667 -0.040947 0.016761 -0.990509 -0.118351 0.069735 0.159134 0.306617
0.026426 0.340665 0.716939 0.074984 0.966796 -0.244270 0.657417 0.553865
0.092379 0.328963 0.716939 0.262154 0.933561 -0.244270 0.635743 0.553865
0.297934 0.167290 0.776554 0.863826 0.485031 0.136082 0.549051 0.575661
0.297934 0.167290 1.114731 0.868954 0.487899 -0.082705 0.549051 0.695197
0.324846 0.105952 1.114731 0.947447 0.309000 -0.082705 0.527379 0.695197
0.324846 0.105952 0.776554 0.941832 0.307169 0.136082 0.527379 0.575661
-0.107012 0.328094 0.000000 -0.225684 0.692007 -0.685690 0.700753 0.300756
-0.105952 0.324846 1.114731 -0.309000 0.947447 -0.082705 0.700753 0.695197
-0.040542 0.339274 1.114731 -0.118229 0.989532 -0.082705 0.679090 0.695197
0.040948 -0.342667 0.000000 0.086337 -0.722739 -0.685690 0.332390 0.300756
0.222200 -0.259572 0.776554 0.644246 -0.752586 0.136082 0.397432 0.575661
0.222200 -0.259572 1.114731 0.648061 -0.757073 -0.082705 0.397432 0.695197
0.167291 -0.297934 0.776554 0.485031 -0.863826 0.136082 0.375750 0.575661
-0.222200 0.259572 0.776554 -0.644246 0.752586 0.136082 0.744054 0.575661
-0.222200 0.259572 1.114731 -0.648061 0.757073 -0.082705 0.744054 0.695197
-0.167291 0.297934 1.114731 -0.487899 0.868954 -0.082705 0.722407 0.695197
-0.167291 0.297934 0.776554 -0.485031 0.863826 0.136082 0.722407 0.575661
-0.224422 0.262168 0.000000 -0.473342 0.552934 -0.685690 0.744054 0.300756
-0.332253 0.093302 0.000000 -0.700766 0.196783 -0.685690 0.808945 0.300756
0.307666 -0.156329 0.000000 0.648915 -0.329722 -0.685690 0.440737 0.300756
0.271256 -0.213348 0.000000 0.572100 -0.449965 -0.685690 0.419092 0.300756
-0.092379 -0.328963 1.114731 -0.269417 -0.959441 -0.082705 0.289069 0.695197
-0.154781 -0.304620 1.114731 -0.451430 -0.888455 -0.082705 0.267415 0.695197
-0.211236 -0.268571 0.776554 -0.612445 -0.778680 0.136082 0.245764 0.575661
-0.211236 -0.268571 1.114731 -0.616077 -0.783319 -0.082705 0.245764 0.695197
-0.300913 -0.168964 0.000000 -0.634663 -0.356365 -0.685690 0.202458 0.300756
0.259572 0.222200 0.776554 0.752586 0.644246 0.136082 0.570723 0.575661
0.259572 0.222200 1.114731 0.757073 0.648061 -0.082705 0.570723 0.695197
0.304620 -0.154781 0.776554 0.883206 -0.448744 0.136082 0.440737 0.575661
0.268571 -0.211235 0.776554 0.778680 -0.612445 0.136082 0.419092 0.575661
0.040542 -0.339274 1.114731 0.118229 -0.989532 -0.082705 0.332390 0.695197
-0.026426 -0.340665 1.114731 -0.077059 -0.993561 -0.082705 0.310543 0.695197
0.339274 0.040542 0.776554 0.983673 0.117527 0.136082 0.505708 0.575661
0.339274 0.040542 1.114731 0.989532 0.118229 -0.082705 0.505708 0.695197
0.340665 -0.026426 0.776554 0.987701 -0.076601 0.136082 0.484038 0.575661
-0.328094 -0.107012 0.000000 -0.692007 -0.225684 -0.685690 0.180789 0.300756
-0.342667 -0.040947 0.000000 -0.722739 -0.086337 -0.685690 0.159134 0.300756
0.304620 -0.154781 1.114731 0.888455 -0.451430 -0.082705 0.440737 0.695197
0.268571 -0.211235 1.114731 0.783319 -0.616077 -0.082705 0.419092 0.695197
0.332253 -0.093302 0.000000 0.700766 -0.196783 -0.685690 0.462267 0.300756
0.328963 -0.092379 0.776554 0.953795 -0.267830 0.136082 0.462465 0.575661
-0.168963 0.300913 0.000000 -0.356365 0.634663 -0.685690 0.722407 0.300756
-0.092379 -0.328963 0.776554 -0.267830 -0.953795 0.136082 0.289069 0.575661
-0.154781 -0.304620 0.776554 -0.448744 -0.883206 0.136082 0.267415 0.575661
0.105952 -0.324846 0.776554 0.307169 -0.941832 0.136082 0.354069 0.575661
-0.154781 -0.304620 0.416274 -0.443770 -0.873379 0.200659 0.267415 0.447739
-0.154781 -0.304620 0.716939 -0.439253 -0.864498 -0.244270 0.267415 0.553865
-0.211236 -0.268571 0.716939 -0.599475 -0.762169 -0.244270 0.245764 0.553865
-0.211236 -0.268571 0.416274 -0.605609 -0.770012 0.200659 0.245764 0.447739
0.297934 0.167290 0.416274 0.854183 0.479629 0.200659 0.549051 0.447739
0.297934 0.167290 0.716939 0.845515 0.474746 -0.244270 0.549051 0.553865
0.324846 0.105952 0.716939 0.921903 0.300668 -0.244270 0.527379 0.553865
0.324846 0.105952 0.416274 0.931364 0.303751 0.200659 0.527379 0.447739
0.026426 0.340665 0.776554 0.076601 0.987701 0.136082 0.657417 0.575661
0.026426 0.340665 1.114731 0.077059 0.993561 -0.082705 0.657417 0.695197
0.340665 -0.026426 0.716939 0.966796 -0.074984 -0.244270 0.484038 0.553865
0.328963 -0.092379 0.716939 0.933561 -0.262154 -0.244270 0.462506 0.553865
-0.105952 0.324846 0.776554 -0.307169 0.941832 0.136082 0.700753 0.575661
-0.040542 0.339274 0.776554 -0.117527 0.983673 0.136082 0.679090 0.575661
0.040542 -0.339274 0.776554 0.117527 -0.983673 0.136082 0.332390 0.575661
-0.328963 0.092379 0.347999 -0.956816 0.268685 -0.110660 0.808945 0.423169
-0.304620 0.154781 0.347999 -0.886013 0.450179 -0.110660 0.787325 0.423169
-0.026426 -0.340665 0.776554 -0.076601 -0.987701 0.136082 0.310850 0.575661
-0.092379 -0.328963 0.716939 -0.262154 -0.933561 -0.244270 0.289069 0.553865
0.092379 0.328963 0.416274 0.264840 0.943144 0.200659 0.635743 0.447739
0.154781 0.304620 0.716939 0.439253 0.864498 -0.244270 0.614070 0.553865
0.154781 0.304620 0.416274 0.443770 0.873379 0.200659 0.614070 0.447739
0.340665 -0.026426 0.416274 0.976714 -0.075747 0.200659 0.484038 0.447739
0.328963 -0.092379 0.416274 0.943144 -0.264840 0.200659 0.462312 0.447739
-0.259572 -0.222200 0.416274 -0.744194 -0.637043 0.200659 0.224574 0.447739
-0.297934 -0.167291 0.416274 -0.854183 -0.479629 0.200659 0.202458 0.447739
-0.340665 0.026426 0.716939 -0.966796 0.074984 -0.244270 0.830562 0.553865
-0.328963 0.092379 0.716939 -0.933561 0.262154 -0.244270 0.808945 0.553865
0.105952 -0.324846 0.347999 0.308176 -0.944853 -0.110660 0.354069 0.423169
0.040542 -0.339274 0.347999 0.117924 -0.986816 -0.110660 0.332390 0.423169
-0.304620 0.154781 0.716939 -0.864498 0.439253 -0.244270 0.787325 0.553865
-0.268571 0.211236 0.716939 -0.762169 0.599475 -0.244270 0.765694 0.553865
0.339274 0.040542 0.716939 0.962828 0.115055 -0.244270 0.505708 0.553865
0.304620 -0.154781 0.716939 0.864498 -0.439253 -0.244270 0.440737 0.553865
0.304620 -0.154781 0.416274 0.873379 -0.443770 0.200659 0.440737 0.447739
0.268571 -0.211235 0.416274 0.770012 -0.605609 0.200659 0.419092 0.447739
-0.328963 0.092379 0.416274 -0.943144 0.264840 0.200659 0.808945 0.447739
-0.304620 0.154781 0.416274 -0.873379 0.443770 0.200659 0.787325 0.447739
-0.259572 -0.222200 0.716939 -0.736656 -0.630573 -0.244270 0.224436 0.553865
-0.297934 -0.167291 0.716939 -0.845515 -0.474746 -0.244270 0.202458 0.553865
-0.324846 -0.105952 0.416274 -0.931364 -0.303751 0.200659 0.180789 0.447739
-0.339274 -0.040542 0.416274 -0.972716 -0.116214 0.200659 0.159134 0.447739
0.211236 0.268571 0.716939 0.599475 0.762169 -0.244270 0.592396 0.553865
0.259572 0.222200 0.716939 0.736656 0.630573 -0.244270 0.570723 0.553865
-0.339274 -0.040542 0.347999 -0.986816 -0.117893 -0.110660 0.852226 0.423169
-0.340665 0.026426 0.347999 -0.990875 0.076846 -0.110660 0.830562 0.423169
0.167291 -0.297934 0.347999 0.486587 -0.866573 -0.110660 0.375750 0.423169
-0.167291 0.297934 0.716939 -0.474746 0.845515 -0.244270 0.722407 0.553865
-0.105952 0.324846 0.716939 -0.300668 0.921903 -0.244270 0.700753 0.553865
-0.040542 0.339274 0.716939 -0.115055 0.962828 -0.244270 0.679090 0.553865
-0.222200 0.259572 0.716939 -0.630573 0.736656 -0.244270 0.744054 0.553865
0.268571 -0.211235 0.716939 0.762169 -0.599475 -0.244270 0.419092 0.553865
-0.324846 -0.105952 0.716939 -0.921903 -0.300668 -0.244270 0.180789 0.553865
-0.167291 0.297934 0.416274 -0.479629 0.854183 0.200659 0.722407 0.447739
-0.105952 0.324846 0.416274 -0.303751 0.931364 0.200659 0.700753 0.447739
-0.339274 -0.040542 0.416274 -0.972716 -0.116214 0.200659 0.852226 0.447739
-0.339274 -0.040542 0.716939 -0.962828 -0.115055 -0.244270 0.852226 0.553865
-0.340665 0.026426 0.416274 -0.976714 0.075747 0.200659 0.830562 0.447739
0.211236 0.268571 0.416274 0.605609 0.770012 0.200659 0.592396 0.447739
0.339274 0.040542 0.416274 0.972716 0.116214 0.200659 0.505708 0.447739
0.105952 -0.324846 0.416274 0.303751 -0.931364 0.200659 0.354069 0.447739
0.040542 -0.339274 0.716939 0.115055 -0.962828 -0.244270 0.332390 0.553865
-0.026426 -0.340665 0.716939 -0.074984 -0.966796 -0.244270 0.310940 0.553865
0.092379 0.328963 0.347999 0.268685 0.956816 -0.110660 0.635743 0.423169
0.154781 0.304620 0.347999 0.450179 0.886013 -0.110660 0.614070 0.423169
0.105952 -0.324846 0.716939 0.300668 -0.921903 -0.244270 0.354069 0.553865
-0.040542 0.339274 0.416274 -0.116214 0.972716 0.200659 0.679090 0.447739
0.026426 0.340665 0.416274 0.075747 0.976714 0.200659 0.657417 0.447739
-0.339274 -0.040542 0.716939 -0.962828 -0.115055 -0.244270 0.159134 0.553865
-0.297934 -0.167291 0.347999 -0.866573 -0.486587 -0.110660 0.202458 0.423169
-0.324846 -0.105952 0.347999 -0.944853 -0.308176 -0.110660 0.180789 0.423169
-0.092379 -0.328963 0.416274 -0.264840 -0.943144 0.200659 0.289069 0.447739
0.340665 -0.026426 0.347999 0.990875 -0.076846 -0.110660 0.484038 0.423169
0.328963 -0.092379 0.347999 0.956816 -0.268685 -0.110660 0.462343 0.423169
-0.026426 -0.340665 0.416274 -0.075747 -0.976714 0.200659 0.310913 0.447739
0.259572 0.222200 0.416274 0.744194 0.637043 0.200659 0.570723 0.447739
-0.268571 0.211236 0.416274 -0.770012 0.605609 0.200659 0.765694 0.447739
-0.222200 0.259572 0.416274 -0.637043 0.744194 0.200659 0.744054 0.447739
-0.105952 0.324846 0.347999 -0.308176 0.944853 -0.110660 0.700753 0.423169
-0.040542 0.339274 0.347999 -0.117893 0.986816 -0.110660 0.679090 0.423169
-0.268571 0.211236 0.347999 -0.781182 0.614399 -0.110660 0.765694 0.423169
-0.222200 0.259572 0.347999 -0.646290 0.754997 -0.110660 0.744054 0.423169
0.040542 -0.339274 0.416274 0.116214 -0.972716 0.200659 0.332390 0.447739
0.026426 0.340665 0.347999 0.076846 0.990875 -0.110660 0.657417 0.423169
-0.026426 -0.340665 0.347999 -0.076846 -0.990875 -0.110660 0.310965 0.423169
-0.167291 0.297934 0.347999 -0.486587 0.866573 -0.110660 0.722407 0.423169
-0.259572 -0.222200 0.347999 -0.754997 -0.646290 -0.110660 0.224634 0.423169
0.304620 -0.154781 0.347999 0.886013 -0.450179 -0.110660 0.440737 0.423169
-0.092379 -0.328963 0.347999 -0.268685 -0.956816 -0.110660 0.289069 0.423169
-0.154781 -0.304620 0.347999 -0.450179 -0.886013 -0.110660 0.267415 0.423169
-0.211236 -0.268571 0.347999 -0.614399 -0.781182 -0.110660 0.245764 0.423169
0.297934 0.167290 0.347999 0.866573 0.486587 -0.110660 0.549051 0.423169
0.324846 0.105952 0.347999 0.944853 0.308176 -0.110660 0.527379 0.423169
0.259572 0.222200 0.347999 0.754997 0.646290 -0.110660 0.570723 0.423169
0.268571 -0.211235 0.347999 0.781182 -0.614399 -0.110660 0.419092 0.423169
0.222200 -0.259572 0.347999 0.646290 -0.754997 -0.110660 0.397432 0.423169
0.339274 0.040542 0.347999 0.986816 0.117924 -0.110660 0.505708 0.423169
-0.339274 -0.040542 0.347999 -0.986816 -0.117893 -0.110660 0.159134 0.423169
0.211236 0.268571 0.347999 0.614399 0.781182 -0.110660 0.592396 0.423169
4 0 1 2 3
4 3 2 4 5
4 5 4 6 7
4 7 6 8 9
4 9 8 10 11
4 11 10 12 13
4 13 12 14 15
4 15 14 16 17
4 17 16 18 19
4 19 18 20 21
4 21 20 22 23
4 23 22 24 25
4 25 24 26 27
4 27 26 28 29
4 29 28 30 31
4 31 30 32 33
4 34 35 36 37
4 37 36 38 39
4 39 38 40 41
4 41 40 42 43
4 43 42 44 45
4 45 44 46 47
4 47 46 48 49
4 49 48 50 51
4 51 50 52 53
4 53 52 54 55
4 55 54 56 57
4 57 56 58 59
4 59 58 60 61
4 61 60 62 63
3 64 65 66
3 64 66 67
3 68 64 67
3 68 67 69
3 70 68 69
3 70 69 71
3 72 70 71
3 72 71 73
3 74 72 73
3 74 73 75
3 76 74 75
3 76 75 77
3 78 76 77
3 78 77 79
3 80 78 79
3 80 79 81
3 80 81 82
3 81 83 82
3 83 84 82
3 83 85 84
3 85 86 84
3 85 87 86
3 87 88 86
3 87 89 88
3 89 90 88
3 89 91 90
3 91 92 90
3 91 93 92
3 93 94 92
3 93 95 94
4 96 97 1 0
4 63 62 97 96
3 98 99 100
3 101 98 100
3 101 100 102
3 103 101 102
3 103 102 104
3 105 103 104
3 105 104 106
3 107 105 106
3 107 106 108
3 109 107 108
3 109 108 110
3 111 109 110
3 112 111 110
3 112 113 111
3 112 114 113
3 114 115 113
3 114 116 115
3 116 117 115
3 116 118 117
3 118 119 117
3 118 120 119
3 120 121 119
3 120 122 121
3 122 123 121
3 122 124 123
3 124 125 123
3 124 126 125
3 126 127 125
3 126 128 127
3 128 129 127
4 130 131 132 133
4 133 132 134 135
4 135 134 136 137
4 137 136 138 139
4 139 138 140 141
4 141 140 142 143
4 143 142 144 145
4 145 144 146 147
4 147 146 148 149
4 149 148 150 151
4 151 150 152 153
4 153 152 154 155
4 155 154 156 157
4 157 156 158 159
4 159 158 160 161
4 161 160 162 163
4 164 165 166 167
4 167 166 168 169
4 169 168 170 171
4 171 170 172 173
4 173 172 174 175
4 175 174 176 177
4 177 176 178 179
4 179 178 180 181
4 181 180 182 183
4 183 182 184 185
4 185 184 186 187
4 187 186 188 189
4 189 188 190 191
4 191 190 192 193
4 194 195 131 130
4 193 192 195 194
4 196 197 198 199
4 200 201 202 203
4 204 205 206 207
4 208 209 210 211
4 212 213 214 215
4 216 217 201 200
4 218 219 220 221
4 222 223 224 225
4 226 207 216 227
4 228 229 230 231
4 232 233 234 235
4 236 237 238 239
4 240 241 242 243
4 244 245 246 247
4 248 249 223 222
4 247 246 250 251
4 252 253 254 255
4 256 231 257 258
4 259 260 261 262
4 219 263 264 220
4 265 266 267 268
4 254 269 270 271
4 272 273 274 275
4 276 277 241 240
4 278 279 280 281
4 282 283 249 248
4 284 285 286 287
4 262 261 277 276
4 288 289 290 291
4 268 267 283 282
4 292 293 294 295
4 296 3 5 297
4 298 299 233 232
4 300 301 273 272
4 253 302 269 254
4 303 304 279 278
4 257 305 306 307
4 271 308 255 254
4 309 310 311 312
4 287 286 313 314
4 315 316 317 318
4 319 320 321 322
4 295 294 304 303
4 203 202 323 299
4 231 230 305 257
4 199 198 324 325
4 243 242 326 327
4 328 329 302 253
4 330 331 260 259
4 307 306 332 333
4 334 335 266 265
4 336 337 301 300
4 325 324 316 315
4 338 339 340 341
4 342 343 344 345
4 327 326 289 288
4 275 274 213 212
4 346 347 338 348
4 281 280 197 196
4 318 317 331 330
4 225 224 293 292
4 349 350 335 334
4 322 321 351 352
4 291 290 337 336
4 347 353 339 338
4 354 355 319 356
4 233 357 358 234
4 359 360 361 362
4 333 332 360 359
4 271 270 363 364
4 365 13 15 366
4 207 206 217 216
4 348 338 341 367
4 308 271 364 368
4 364 363 369 370
4 227 216 200 371
4 341 340 372 373
4 235 234 355 354
4 362 361 353 347
4 374 362 347 346
4 234 358 375 355
4 220 264 229 228
4 376 377 205 204
4 299 323 357 233
4 378 373 328 379
4 352 351 380 381
4 370 369 377 376
4 379 328 253 252
4 382 183 185 383
4 311 29 31 209
4 384 385 386 387
4 388 359 362 374
4 389 49 51 390
4 373 372 329 328
4 371 200 203 391
4 355 375 320 319
4 392 393 365 394
4 395 396 397 398
4 258 257 307 399
4 400 228 231 256
4 401 376 204 402
4 403 21 23 404
4 405 406 310 309
4 367 341 373 378
4 356 319 322 407
4 238 37 39 245
4 408 409 385 384
4 136 410 411 138
4 409 61 63 385
4 239 238 245 244
4 186 287 314 188
4 412 17 19 413
4 414 415 296 416
4 221 220 228 400
4 402 204 207 226
4 391 203 299 298
4 417 352 381 418
4 410 419 420 411
4 368 364 370 421
4 416 296 297 422
4 297 5 7 419
4 399 307 333 423
4 424 403 404 425
4 421 370 376 401
4 423 333 359 388
4 314 313 409 408
4 313 59 61 409
4 407 322 352 417
4 184 284 287 186
4 142 394 426 144
4 427 428 429 430
4 166 239 244 168
4 209 31 33 210
4 285 55 57 286
4 245 39 41 246
4 422 297 419 410
4 431 432 433 434
4 435 436 285 284
4 437 133 135 438
4 398 397 389 439
4 250 43 45 396
4 440 390 436 435
4 426 366 412 441
4 442 265 268 443
4 444 413 403 424
4 445 151 153 428
4 439 389 390 440
4 180 440 435 182
4 387 386 415 414
4 394 365 366 426
4 251 250 396 395
4 419 7 9 420
4 441 412 413 444
4 172 251 395 174
4 156 309 312 158
4 411 420 393 392
4 425 404 406 405
4 446 383 447 448
4 312 311 209 208
4 158 312 208 160
4 449 437 438 450
4 436 53 55 285
4 390 51 53 436
4 273 451 452 274
4 310 27 29 311
4 453 167 169 454
4 420 9 11 393
4 393 11 13 365
4 160 208 211 162
4 396 45 47 397
4 182 435 284 184
4 366 15 17 412
4 455 243 327 456
4 176 398 439 178
4 286 57 59 313
4 457 171 173 458
4 237 34 37 238
4 386 96 0 415
4 413 19 21 403
4 246 41 43 250
4 415 0 3 296
4 433 194 130 459
4 343 141 143 344
4 404 23 25 406
4 132 416 422 134
4 131 414 416 132
4 178 439 440 180
4 174 395 398 176
4 397 47 49 389
4 385 63 96 386
4 406 25 27 310
4 144 426 441 146
4 438 135 137 460
4 154 405 309 156
4 195 387 414 131
4 134 422 410 136
4 190 408 384 192
4 168 244 247 170
4 260 461 462 261
4 138 411 392 140
4 146 441 444 148
4 463 454 457 464
4 465 157 159 466
4 429 155 157 465
4 165 236 239 166
4 152 425 405 154
4 459 130 133 437
4 188 314 408 190
4 192 384 387 195
4 170 247 251 172
4 213 467 468 214
4 469 189 191 470
4 471 349 334 472
4 451 465 466 452
4 217 473 455 201
4 474 177 179 475
4 476 181 183 382
4 477 175 177 474
4 478 139 141 343
4 148 444 424 150
4 150 424 425 152
4 140 392 394 142
4 452 466 479 467
4 223 480 481 224
4 430 429 465 451
4 482 483 453 484
4 470 191 193 432
4 428 153 155 429
4 448 447 469 485
4 486 459 437 449
4 241 345 487 242
4 466 159 161 479
4 458 173 175 477
4 454 169 171 457
4 488 147 149 489
4 339 490 491 340
4 492 145 147 488
4 383 185 187 447
4 264 472 442 229
4 475 179 181 476
4 493 476 382 494
4 460 137 139 478
4 479 161 163 495
4 483 164 167 453
4 496 275 212 497
4 337 427 430 301
4 489 149 151 445
4 450 438 460 461
4 432 193 194 433
4 498 445 428 427
4 344 143 145 492
4 499 318 330 500
4 447 187 189 469
4 434 433 459 486
4 501 489 445 498
4 502 470 432 431
4 503 458 477 504
4 360 505 506 361
4 464 457 458 503
4 480 474 475 481
4 507 282 248 508
4 324 434 486 316
4 305 507 508 306
4 504 477 474 480
4 224 481 493 293
4 345 344 492 487
4 481 475 476 493
4 509 488 489 501
4 494 382 383 446
4 485 469 470 502
4 350 482 484 335
4 326 509 501 289
4 506 292 295 510
4 467 479 495 468
4 473 240 243 455
4 456 327 288 511
4 512 222 225 505
4 335 484 463 266
4 487 492 488 509
4 202 456 511 323
4 462 478 343 342
4 461 460 478 462
4 484 453 454 463
4 290 498 427 337
4 316 486 449 317
4 263 471 472 264
4 283 503 504 249
4 249 504 480 223
4 279 448 485 280
4 353 510 490 339
4 304 446 448 279
4 331 450 461 260
4 229 442 443 230
4 317 449 450 331
4 266 463 464 267
4 505 225 292 506
4 242 487 509 326
4 267 464 503 283
4 320 513 496 321
4 289 501 498 290
4 261 462 342 277
4 301 430 451 273
4 197 502 431 198
4 293 493 494 294
4 198 431 434 324
4 306 508 512 332
4 443 268 282 507
4 369 500 514 377
4 277 342 345 241
4 280 485 502 197
4 294 494 446 304
4 274 452 467 213
4 357 515 516 358
4 490 303 278 491
4 375 517 513 320
4 516 336 300 517
4 518 199 325 519
4 511 288 291 515
4 520 196 199 518
4 329 520 518 302
4 515 291 336 516
4 514 259 262 521
4 521 262 276 522
4 523 315 318 499
4 497 212 215 524
4 517 300 272 513
4 519 325 315 523
4 522 276 240 473
4 525 281 196 520
4 513 272 275 496
4 269 519 523 270
4 491 278 281 525
4 508 248 222 512
4 323 511 515 357
4 500 330 259 514
4 472 334 265 442
4 510 295 303 490
4 332 512 505 360
4 230 443 507 305
4 206 522 473 217
4 205 521 522 206
4 340 491 525 372
4 361 506 510 353
4 377 514 521 205
4 302 518 519 269
4 363 499 500 369
4 270 523 499 363
4 372 525 520 329
4 321 496 497 351
4 351 497 524 380
4 201 455 456 202
4 358 516 517 375
