ply
format ascii 1.0
comment Created by Blender 2.67 (sub 1) - www.blender.org, source file: 'stopsign.blend'
element vertex 48
property float x
property float y
property float z
property float nx
property float ny
property float nz
property float s
property float t
element face 20
property list uchar uint vertex_indices
end_header
0.101915 -0.926120 2.264299 0.000000 -0.711263 -0.702926 -0.207137 0.207926
0.087834 -0.926120 2.264299 0.000000 -0.711263 -0.702926 0.792074 -0.207137
0.087834 -0.388123 1.719922 0.000000 -0.711263 -0.702926 1.207137 0.792074
0.101915 -0.388123 1.719922 0.000000 -0.711263 -0.702926 0.207926 1.207137
0.101915 -0.388123 1.719922 0.000000 -0.005895 -0.999983 -0.207137 0.207926
0.087834 -0.388123 1.719922 0.000000 -0.005895 -0.999983 0.792074 -0.207137
0.087835 0.377230 1.715410 0.000000 -0.005895 -0.999983 1.207137 0.792074
0.101915 0.377230 1.715410 0.000000 -0.005895 -0.999983 0.207926 1.207137
0.101915 0.377230 1.715410 0.000000 0.702926 -0.711263 -0.207137 0.207926
0.087835 0.377230 1.715410 0.000000 0.702926 -0.711263 0.792074 -0.207137
0.087835 0.921607 2.253407 0.000000 0.702926 -0.711263 1.207137 0.792074
0.101915 0.921607 2.253407 0.000000 0.702926 -0.711263 0.207926 1.207137
0.101915 0.921607 2.253407 0.000000 0.999983 -0.005895 -0.207137 0.207926
0.087835 0.921607 2.253407 0.000000 0.999983 -0.005895 0.792074 -0.207137
0.087835 0.926119 3.018760 0.000000 0.999983 -0.005895 1.207137 0.792074
0.101915 0.926119 3.018760 0.000000 0.999983 -0.005895 0.207926 1.207137
0.101915 0.926119 3.018760 0.000000 0.711263 0.702926 -0.207137 0.207926
0.087835 0.926119 3.018760 0.000000 0.711263 0.702926 0.792074 -0.207137
0.087835 0.388123 3.563137 0.000000 0.711263 0.702926 1.207137 0.792074
0.101915 0.388123 3.563137 0.000000 0.711263 0.702926 0.207926 1.207137
0.101915 0.388123 3.563137 0.000000 0.005895 0.999983 -0.207137 0.207926
0.087835 0.388123 3.563137 0.000000 0.005895 0.999983 0.792074 -0.207137
0.087835 -0.377230 3.567649 0.000000 0.005895 0.999983 1.207137 0.792074
0.101915 -0.377230 3.567649 0.000000 0.005895 0.999983 0.207926 1.207137
0.087835 0.388123 3.563137 -1.000000 0.000000 0.000000 0.707016 0.000181
0.087835 0.926119 3.018760 -1.000000 0.000000 0.000000 0.292956 0.000192
0.087835 0.921607 2.253407 -1.000000 0.000000 0.000000 0.000181 0.292984
0.087835 0.377230 1.715410 -1.000000 0.000000 0.000000 0.000192 0.707043
0.087835 -0.377230 3.567649 -1.000000 0.000000 0.000000 0.999808 0.292956
0.087834 -0.388123 1.719922 -1.000000 0.000000 0.000000 0.292984 0.999819
0.087835 -0.921607 3.029653 -1.000000 0.000000 0.000000 0.999819 0.707016
0.087834 -0.926120 2.264299 -1.000000 0.000000 0.000000 0.707044 0.999808
0.087834 -0.926120 2.264299 0.000000 -0.999983 0.005895 1.207137 0.792074
0.101915 -0.926120 2.264299 0.000000 -0.999983 0.005895 0.207926 1.207137
0.101915 -0.921607 3.029653 0.000000 -0.999983 0.005895 -0.207137 0.207926
0.087835 -0.921607 3.029653 0.000000 -0.999983 0.005895 0.792074 -0.207137
0.101915 -0.377230 3.567649 0.000000 -0.702926 0.711263 -0.207137 0.207926
0.087835 -0.377230 3.567649 0.000000 -0.702926 0.711263 0.792074 -0.207137
0.087835 -0.921607 3.029653 0.000000 -0.702926 0.711263 1.207137 0.792074
0.101915 -0.921607 3.029653 0.000000 -0.702926 0.711263 0.207926 1.207137
0.101915 0.921607 2.253407 1.000000 -0.000000 -0.000000 -0.000021 0.293472
0.101915 0.926119 3.018760 1.000000 -0.000000 -0.000000 0.000395 0.707531
0.101915 0.388123 3.563137 1.000000 -0.000000 -0.000000 0.293472 1.000021
0.101915 0.377230 1.715410 1.000000 -0.000000 -0.000000 0.292469 0.000394
0.101915 -0.377230 3.567649 1.000000 -0.000000 -0.000000 0.707531 0.999605
0.101915 -0.388123 1.719922 1.000000 -0.000000 -0.000000 0.706528 -0.000021
0.101915 -0.921607 3.029653 1.000000 -0.000000 -0.000000 1.000021 0.706528
0.101915 -0.926120 2.264299 1.000000 -0.000000 -0.000000 0.999606 0.292469
4 0 1 2 3
4 4 5 6 7
4 8 9 10 11
4 12 13 14 15
4 16 17 18 19
4 20 21 22 23
3 24 25 26
3 24 26 27
3 28 24 27
3 29 28 27
3 29 30 28
3 29 31 30
4 32 33 34 35
4 36 37 38 39
3 40 41 42
3 43 40 42
3 43 42 44
3 45 43 44
3 45 44 46
3 47 45 46
